<?xml version="1.0" standalone="no"?>
<!DOCTYPE svg PUBLIC "-//W3C//DTD SVG 20010904//EN"
 "http://www.w3.org/TR/2001/REC-SVG-20010904/DTD/svg10.dtd">
<svg version="1.0" xmlns="http://www.w3.org/2000/svg"
 width="1024.000000pt" height="1024.000000pt" viewBox="0 0 1024.000000 1024.000000"
 preserveAspectRatio="xMidYMid meet">
<metadata>
Created by potrace 1.11, written by Peter Selinger 2001-2013
</metadata>
<g transform="translate(0.000000,1024.000000) scale(0.100000,-0.100000)"
fill="#000000" stroke="none">
<path d="M4847 7886 c-2 -6 -3 -91 -2 -188 0 -113 -4 -178 -10 -179 -5 -1 -65
-1 -132 -1 l-123 0 0 -94 c0 -83 2 -94 18 -95 21 -1 366 -1 408 0 l31 1 -1
282 -1 283 -92 0 c-57 1 -94 -3 -96 -9z"/>
<path d="M5130 7827 c0 -41 5 -73 13 -81 6 -7 50 -55 97 -106 47 -51 97 -106
113 -123 15 -16 27 -30 27 -31 0 -1 -56 -1 -125 -1 l-125 1 0 -78 c0 -71 2
-78 20 -79 11 0 110 0 220 0 110 0 220 0 245 0 l45 1 0 68 -1 67 -62 66 c-115
123 -177 190 -181 198 -3 4 43 8 102 8 59 1 113 2 120 2 8 1 12 24 12 79 l0
77 -260 0 -260 0 0 -68z"/>
<path d="M3635 7023 c8 -83 14 -146 20 -218 3 -38 7 -90 10 -115 2 -25 7 -74
10 -110 3 -36 8 -81 10 -100 2 -19 7 -75 10 -125 3 -49 8 -101 10 -115 2 -14
6 -61 10 -105 3 -44 7 -98 10 -120 2 -22 7 -71 10 -110 3 -38 8 -86 10 -105 2
-19 7 -71 10 -115 6 -78 10 -117 19 -220 3 -27 8 -81 11 -120 3 -38 8 -88 10
-110 2 -22 7 -76 10 -120 3 -44 8 -94 10 -111 3 -17 7 -65 10 -105 5 -69 9
-108 20 -219 2 -25 7 -79 10 -120 4 -41 8 -93 10 -115 2 -22 7 -74 10 -115 3
-41 8 -91 10 -110 2 -19 7 -69 11 -110 3 -41 7 -76 9 -78 1 -2 49 -16 106 -31
57 -16 181 -50 274 -76 94 -26 199 -56 235 -66 36 -9 182 -50 325 -90 143 -40
267 -72 275 -72 8 0 114 28 235 62 121 34 227 64 235 66 8 1 114 31 235 65
121 33 227 63 235 65 8 2 75 20 148 40 l132 38 1 36 c0 20 2 43 3 51 2 8 7 56
11 105 4 50 9 105 11 123 4 33 10 98 19 214 3 35 7 88 10 118 11 116 14 147
19 205 3 33 8 89 11 125 6 72 13 147 20 230 3 30 7 80 10 110 6 66 15 162 20
210 2 19 7 76 10 125 4 50 8 101 10 115 2 14 6 59 10 100 3 41 8 95 10 120 3
25 7 74 10 110 3 36 7 85 10 110 2 25 7 77 10 115 11 137 23 263 30 330 3 22
7 74 10 115 5 72 9 118 21 223 l5 47 -1491 0 -1491 0 6 -47z"/>
<path d="M559 6660 l-24 -6 0 -277 c0 -152 2 -278 5 -278 3 -1 44 -2 93 -3
102 -3 99 -6 95 111 -2 42 1 74 7 76 6 2 44 3 85 3 l75 -1 2 -88 c1 -49 4 -92
8 -95 4 -4 47 -7 96 -7 l89 0 0 282 c0 219 -3 283 -12 284 -42 4 -170 0 -175
-5 -3 -3 -6 -45 -7 -93 l-1 -88 -82 0 c-95 0 -86 -13 -83 118 l1 67 -38 1
c-21 0 -54 2 -74 3 -20 1 -47 -1 -60 -4z"/>
<path d="M1193 6662 c-22 -3 -23 -8 -23 -98 l0 -94 68 1 c37 0 74 1 82 0 14
-1 16 -25 15 -178 -1 -98 0 -183 2 -188 3 -8 147 -13 185 -6 3 0 6 83 7 182 0
100 2 184 5 187 3 3 40 4 81 3 41 -1 76 1 76 6 6 38 3 176 -5 180 -9 6 -455
10 -493 5z"/>
<path d="M1798 6660 l-23 -6 0 -279 0 -279 93 -1 c87 -2 92 -1 93 19 1 12 1
72 1 134 1 61 2 112 4 112 2 0 32 -43 66 -96 l61 -96 64 98 c39 61 63 91 64
79 0 -11 1 -72 2 -135 l2 -115 92 0 c54 0 94 4 96 10 3 9 1 543 -2 555 0 3
-45 5 -98 4 l-98 -1 -59 -96 c-67 -112 -57 -113 -136 21 -35 59 -47 72 -69 73
-88 4 -132 3 -153 -1z"/>
<path d="M2509 6620 c-1 -60 -1 -412 0 -475 l1 -50 223 1 c122 1 224 2 227 3
3 0 5 43 5 94 l0 92 -132 0 c-112 0 -133 2 -134 15 0 8 -1 93 -1 188 0 94 -3
172 -7 173 -3 0 -45 1 -94 2 l-87 2 -1 -45z"/>
<path d="M7647 6658 c-8 -5 -14 -424 -8 -549 1 -15 25 -16 228 -15 l228 1 0
80 0 80 -133 0 -132 0 0 122 0 122 113 0 c61 -1 121 0 133 0 20 1 21 6 19 79
-2 42 -3 79 -4 82 -2 8 -431 6 -444 -2z"/>
<path d="M8243 6662 l-52 -3 1 -69 c1 -57 5 -72 22 -88 28 -26 198 -210 214
-233 12 -17 8 -18 -60 -18 -40 1 -96 1 -124 0 l-51 -1 0 -79 -1 -79 267 0 266
0 -2 61 c0 34 -2 67 -2 72 -1 6 -29 39 -62 75 -71 76 -135 145 -166 181 l-23
25 108 -1 c59 -1 114 0 123 2 12 3 15 19 14 73 0 38 -4 72 -8 76 -7 7 -364 12
-464 6z"/>
<path d="M8819 6660 c-1 -3 -2 -33 -3 -67 -2 -61 -1 -64 38 -107 126 -135 201
-219 205 -228 2 -5 -25 -9 -65 -8 -38 1 -94 1 -124 1 l-56 -1 1 -77 0 -78 267
-2 266 -1 0 69 c0 60 -4 72 -27 97 -109 117 -216 235 -219 241 -1 3 51 6 115
6 l118 0 2 78 c1 42 -1 77 -5 78 -36 3 -512 3 -513 -1z"/>
<path d="M265 5756 c4 -45 8 -92 10 -106 2 -14 7 -59 10 -100 3 -41 8 -93 10
-115 2 -22 6 -71 9 -110 4 -38 8 -92 11 -120 2 -27 7 -79 10 -115 3 -36 8 -87
11 -115 3 -27 7 -77 9 -110 4 -56 9 -115 21 -225 2 -25 6 -76 9 -115 3 -38 7
-86 10 -105 2 -19 7 -69 10 -110 4 -41 8 -91 10 -110 2 -19 6 -69 10 -110 3
-41 8 -97 10 -125 3 -27 7 -75 9 -105 4 -50 17 -193 31 -340 13 -136 25 -273
31 -349 2 -31 6 -72 8 -91 3 -19 8 -71 11 -115 8 -115 14 -158 23 -166 4 -3
93 -30 197 -58 105 -28 262 -72 350 -96 171 -48 201 -57 481 -134 l181 -49 69
19 c38 11 78 22 89 24 11 3 43 12 70 20 45 14 540 151 575 160 29 7 276 75
305 85 17 5 48 14 71 19 22 6 41 17 41 23 0 25 14 183 18 213 2 17 7 64 11
105 8 100 12 152 19 230 3 36 8 88 10 115 3 28 7 75 10 105 3 30 7 84 10 120
6 69 12 142 20 225 3 28 7 75 10 105 2 30 6 82 10 115 3 33 8 85 10 115 8 93
16 173 20 220 3 25 7 74 10 110 3 36 7 85 10 110 2 25 7 81 10 125 3 44 8 96
10 115 7 50 23 241 30 338 4 46 8 93 10 104 3 12 7 60 10 107 4 47 8 97 10
111 2 14 6 63 10 110 3 47 8 93 11 103 3 9 2 18 -3 19 -4 1 -675 2 -1491 3
l-1483 2 6 -81z"/>
<path d="M7005 5821 c1 -9 6 -56 9 -106 4 -49 9 -101 11 -115 2 -14 7 -56 9
-95 3 -38 8 -97 11 -130 3 -33 8 -89 10 -125 3 -35 7 -76 10 -90 2 -14 7 -63
10 -110 3 -47 8 -103 10 -125 2 -22 7 -69 10 -105 15 -167 20 -230 30 -345 3
-38 8 -92 11 -120 8 -81 13 -136 19 -205 3 -36 7 -83 10 -105 2 -22 6 -78 10
-125 3 -47 8 -101 10 -120 2 -19 7 -66 10 -105 3 -38 7 -86 10 -105 2 -19 7
-74 10 -122 3 -47 7 -94 9 -105 2 -10 7 -59 10 -110 4 -50 9 -102 11 -115 2
-13 6 -63 10 -112 4 -49 9 -103 11 -120 3 -17 5 -48 5 -68 1 -25 7 -39 18 -42
30 -9 276 -78 291 -82 8 -2 40 -10 70 -19 30 -9 62 -18 70 -20 8 -2 185 -51
393 -109 l378 -104 317 87 c781 216 881 244 890 250 11 7 18 48 27 161 5 72
10 121 20 220 2 25 7 81 11 125 3 44 8 91 9 105 1 14 5 63 9 110 4 47 9 101
11 120 3 19 7 69 10 110 3 41 7 93 10 115 2 22 7 72 10 110 3 39 8 88 10 110
6 55 13 137 20 220 3 39 8 95 11 125 3 30 7 76 9 101 2 25 6 73 9 107 3 34 8
90 11 125 3 34 8 82 10 107 2 25 7 74 10 110 3 36 8 85 10 110 5 50 12 131 20
230 3 36 7 85 10 110 2 25 7 79 11 120 3 41 8 91 10 110 2 19 6 67 9 106 l6
71 -1489 0 c-1354 0 -1490 -2 -1487 -16z"/>
</g>
</svg>
